<svg xmlns="http://www.w3.org/2000/svg" viewBox="0 0 98.63 17.66">
  <title>logo</title>
  <g id="e9f2d7a4-c9bf-4cb4-998c-500dc19490fd" data-name="Layer 2">
    <g id="e6898cd1-e49b-4381-84c5-170a006d6775" data-name="Layer 1">
      <g>
        <g class="text">
          <path d="M35.44,12.63H33.53v-2.1l.19-4.13-2.19,6.23H30.25L28.06,6.4l.19,4.13v2.1h-1.9V4.1h2.49l2.05,6,2-6h2.5Z"/>
          <path d="M36.87,7.74a2.62,2.62,0,0,1,1-1.15,3.41,3.41,0,0,1,3.28,0,2.73,2.73,0,0,1,1,1.14,3.87,3.87,0,0,1,.35,1.67v.12a3.9,3.9,0,0,1-.35,1.67,2.67,2.67,0,0,1-1,1.14,3.39,3.39,0,0,1-3.27,0,2.55,2.55,0,0,1-1-1.14,3.73,3.73,0,0,1-.36-1.67V9.4A3.68,3.68,0,0,1,36.87,7.74Zm1.75,3.06a1,1,0,0,0,.93.47,1,1,0,0,0,.91-.48,2.44,2.44,0,0,0,.28-1.27V9.4a2.49,2.49,0,0,0-.28-1.27,1.12,1.12,0,0,0-1.84,0,2.49,2.49,0,0,0-.28,1.27v.12A2.48,2.48,0,0,0,38.62,10.8Z"/>
          <path d="M48.56,6.75a2.74,2.74,0,0,1,.53,1.88v4H47.25v-4A1,1,0,0,0,47,7.86a1,1,0,0,0-.72-.21,1.06,1.06,0,0,0-1,.53v4.45H43.5V6.29h1.71l.07.73a2.09,2.09,0,0,1,.79-.63,2.25,2.25,0,0,1,1-.22A1.87,1.87,0,0,1,48.56,6.75Z"/>
          <path d="M55.91,10.06h-4a1.47,1.47,0,0,0,.48.88,1.45,1.45,0,0,0,1,.33,2.14,2.14,0,0,0,.84-.17,1.53,1.53,0,0,0,.66-.5l.86,1a2.53,2.53,0,0,1-1,.8,3.29,3.29,0,0,1-1.51.33,3.39,3.39,0,0,1-1.71-.42,2.89,2.89,0,0,1-1.11-1.11,3.16,3.16,0,0,1-.39-1.55V9.45a3.85,3.85,0,0,1,.36-1.69,2.72,2.72,0,0,1,1-1.16,2.91,2.91,0,0,1,1.61-.43,3,3,0,0,1,1.54.38,2.49,2.49,0,0,1,1,1.08,3.79,3.79,0,0,1,.33,1.65ZM54.11,8.7a1.09,1.09,0,0,0-.26-.77,1,1,0,0,0-.79-.28c-.62,0-1,.4-1.13,1.19h2.18Z"/>
          <path d="M62.31,6.29l-2.54,7.28a3.66,3.66,0,0,1-.37.77,1.82,1.82,0,0,1-.63.6,2.1,2.1,0,0,1-1.06.25l-.39,0-.39-.1V13.7h.25a1.39,1.39,0,0,0,.7-.14.86.86,0,0,0,.34-.46l.18-.45L56.18,6.29h2l1.1,3.76,1.11-3.76Z"/>
          <path d="M68.11,4.47a2.67,2.67,0,0,1,1.13,1A2.8,2.8,0,0,1,69.63,7a2.66,2.66,0,0,1-.39,1.44,2.58,2.58,0,0,1-1.13.95,4,4,0,0,1-1.73.34H64.91v2.93H63V4.1h3.37A3.8,3.8,0,0,1,68.11,4.47Zm-.73,3.37A1.14,1.14,0,0,0,67.71,7a1.6,1.6,0,0,0-.14-.67,1.1,1.1,0,0,0-.44-.49,1.35,1.35,0,0,0-.75-.19H64.91V8.16h1.47A1.35,1.35,0,0,0,67.38,7.84Z"/>
          <path d="M70.78,12.63v-9h1.83v9Z"/>
          <path d="M79.55,10.06h-4a1.43,1.43,0,0,0,.49.88,1.41,1.41,0,0,0,1,.33,2.1,2.1,0,0,0,.84-.17,1.62,1.62,0,0,0,.67-.5l.86,1a2.65,2.65,0,0,1-1,.8,3.26,3.26,0,0,1-1.51.33,3.32,3.32,0,0,1-1.7-.42,2.85,2.85,0,0,1-1.12-1.11,3.26,3.26,0,0,1-.38-1.55V9.45a4,4,0,0,1,.35-1.69,2.78,2.78,0,0,1,1-1.16,2.91,2.91,0,0,1,1.61-.43,3,3,0,0,1,1.54.38,2.43,2.43,0,0,1,1,1.08,3.79,3.79,0,0,1,.33,1.65ZM77.76,8.7a1,1,0,0,0-.27-.77,1,1,0,0,0-.79-.28c-.62,0-1,.4-1.12,1.19h2.18Z"/>
          <path d="M85.7,11.94a2,2,0,0,0,.19.59v.1H84.05a3.39,3.39,0,0,1-.17-.56,1.94,1.94,0,0,1-1.57.68,2.45,2.45,0,0,1-1.08-.25,1.91,1.91,0,0,1-.78-.68,1.76,1.76,0,0,1-.29-1,1.78,1.78,0,0,1,.75-1.54,3.7,3.7,0,0,1,2.2-.54h.69V8.41a1,1,0,0,0-.21-.67A.83.83,0,0,0,83,7.51a.9.9,0,0,0-.6.18.64.64,0,0,0-.22.53H80.31a1.71,1.71,0,0,1,.34-1,2.21,2.21,0,0,1,1-.74,3.56,3.56,0,0,1,1.44-.27,3.34,3.34,0,0,1,1.34.26,2.1,2.1,0,0,1,.91.75,2.23,2.23,0,0,1,.33,1.24v2.63A4.26,4.26,0,0,0,85.7,11.94Zm-2.31-.73a1,1,0,0,0,.41-.39v-1h-.66a1.27,1.27,0,0,0-.87.26.94.94,0,0,0-.28.68.62.62,0,0,0,.2.47.85.85,0,0,0,.54.17A1.29,1.29,0,0,0,83.39,11.21Z"/>
          <path d="M87.3,9.42a1.52,1.52,0,0,1-.6-1.26,1.76,1.76,0,0,1,.31-1,2.09,2.09,0,0,1,.89-.73,3.25,3.25,0,0,1,1.37-.27,3.69,3.69,0,0,1,1.43.26,2.29,2.29,0,0,1,1,.73A1.81,1.81,0,0,1,92,8.23H90.15a.73.73,0,0,0-.22-.58.91.91,0,0,0-.67-.21.92.92,0,0,0-.59.18.56.56,0,0,0-.23.45.52.52,0,0,0,.26.44,2.48,2.48,0,0,0,.86.27,5.88,5.88,0,0,1,1.27.36,2.07,2.07,0,0,1,.84.63,1.59,1.59,0,0,1,.31,1,1.65,1.65,0,0,1-.33,1,2.15,2.15,0,0,1-1,.69,3.72,3.72,0,0,1-1.43.26,3.31,3.31,0,0,1-1.49-.32,2.32,2.32,0,0,1-1-.81,1.82,1.82,0,0,1-.33-1h1.72a.78.78,0,0,0,.32.65,1.23,1.23,0,0,0,.77.22A1.16,1.16,0,0,0,90,11.3a.52.52,0,0,0,.24-.45.48.48,0,0,0-.11-.3,1,1,0,0,0-.38-.22,5.48,5.48,0,0,0-.79-.22A4.08,4.08,0,0,1,87.3,9.42Z"/>
          <path d="M98.63,10.06h-4a1.47,1.47,0,0,0,.48.88,1.45,1.45,0,0,0,1,.33A2.14,2.14,0,0,0,97,11.1a1.53,1.53,0,0,0,.66-.5l.86,1a2.53,2.53,0,0,1-1,.8,3.64,3.64,0,0,1-3.21-.09,2.85,2.85,0,0,1-1.12-1.11,3.15,3.15,0,0,1-.38-1.55V9.45a3.84,3.84,0,0,1,.35-1.69,2.78,2.78,0,0,1,1-1.16,2.91,2.91,0,0,1,1.61-.43,3,3,0,0,1,1.54.38,2.43,2.43,0,0,1,1,1.08,3.79,3.79,0,0,1,.33,1.65ZM96.83,8.7a1,1,0,0,0-.26-.77,1,1,0,0,0-.79-.28c-.62,0-1,.4-1.13,1.19h2.18Z"/>
        </g>
        <g class="mark">
          <path d="M12.48,12.49a2,2,0,0,0,1.23-2.26c0-.18.08-.28.18-.39l2.85-3.23a3.31,3.31,0,0,1,.33-.32,1.4,1.4,0,0,1,1.83-.21A1.28,1.28,0,0,1,19,7.87c-1.78,2.65-3.53,5.32-5.5,7.84A4.39,4.39,0,0,1,10,17.46c-1.74.05-8.41.2-9.55.2s.21-1.9.47-2.29c.56-.85,1.09-1.71,1.62-2.58a5.35,5.35,0,0,1,4.51-2.61,22.46,22.46,0,0,0,4.38-.63,1.26,1.26,0,0,1,1.57.7,1.16,1.16,0,0,1-.69,1.52C10.57,12.52,9,13.6,7.09,14c-.24.05-.51.13-.43.45s.34.28.6.22a19.7,19.7,0,0,0,4.24-1.77Z"/>
          <path d="M16.79,5.31c.12.17,0,.24-.11.32-1,1.18-2.09,2.36-3.12,3.54-.16.18-.28.26-.46,0,0-.05-.12-.07-.17-.11-.22-.22-.73-.14-.73-.46s.37-.46.57-.69c.64-.73,1.28-1.47,1.94-2.19a1.57,1.57,0,0,1,1.82-.57Z"/>
          <path d="M8.68,9.41c1.05-1.19,2-2.26,3-3.3a1.51,1.51,0,0,1,1.63-.47c.34.1.45.19.16.5C12.68,7,12,7.79,11.25,8.63a1.18,1.18,0,0,1-.74.42C10,9.14,9.4,9.26,8.68,9.41Z"/>
          <circle cx="5.86" cy="3.1" r="3.1"/>
        </g>
      </g>
    </g>
  </g>
</svg>
