<svg xmlns="http://www.w3.org/2000/svg" viewBox="0 0 80.26 73.31"><defs><style></style></defs><title>MoneyPlease</title><g class="mark" data-name="Layer 1"><path class="cls-1" d="M51.82,51.84c3.78-2.19,6-5,5.11-9.36-.16-.77.33-1.18.74-1.64L69.51,27.43a17.2,17.2,0,0,1,1.37-1.33c2.51-2.2,5.49-2.53,7.59-.84s2.47,4.61.58,7.42c-7.39,11-14.66,22.09-22.83,32.55a18.15,18.15,0,0,1-14.69,7.26c-7.25.19-34.91.82-39.65.82s.85-7.88,1.94-9.51c2.33-3.51,4.53-7.1,6.74-10.69C14.9,46,21.21,42.81,29.25,42.28a94.8,94.8,0,0,0,18.19-2.64A5.33,5.33,0,0,1,54,42.54a4.86,4.86,0,0,1-2.9,6.32c-7.22,3.1-13.85,7.59-21.66,9.32-1,.21-2.1.51-1.79,1.85s1.43,1.15,2.52.93C36.52,59.7,42,56.22,47.75,53.62,49.18,53,50.62,52.37,51.82,51.84Z"/><path class="cls-1" d="M69.69,22.05c.5.71-.16,1-.45,1.33-4.31,4.91-8.66,9.78-13,14.69-.66.76-1.15,1.09-1.89.19-.18-.22-.51-.3-.71-.5-.91-.88-3-.54-3-1.9,0-1,1.51-1.91,2.35-2.86,2.68-3,5.33-6.1,8.05-9.09,2-2.25,4.46-3.5,7.58-2.35C69,21.7,69.37,21.9,69.69,22.05Z"/><path class="cls-1" d="M36,39.05c4.39-4.91,8.26-9.35,12.24-13.69a6.3,6.3,0,0,1,6.78-1.94c1.41.4,1.86.78.67,2.09-3.08,3.37-6.06,6.83-9,10.3a4.84,4.84,0,0,1-3.05,1.77C41.34,38,39,38.47,36,39.05Z"/><circle class="cls-1" cx="24.35" cy="12.86" r="12.86"/></g></svg>